<svg width="39" height="50" viewBox="0 0 39 50" fill="none" xmlns="http://www.w3.org/2000/svg">
<path d="M37.4936 38.3268C37.0335 38.3268 36.6604 38.6999 36.6604 39.16V47.4919C36.6604 47.9524 36.2874 48.3251 35.8272 48.3251H2.49957C2.03945 48.3251 1.66638 47.9524 1.66638 47.4919V2.49957C1.66638 2.03945 2.03945 1.66638 2.49957 1.66638H35.8272C36.2874 1.66638 36.6604 2.03945 36.6604 2.49957V18.1471C36.6604 18.6073 37.0335 18.9803 37.4936 18.9803C37.9537 18.9803 38.3268 18.6073 38.3268 18.1471V2.49957C38.3268 1.11919 37.2076 0 35.8272 0H2.49957C1.11919 0 0 1.11919 0 2.49957V47.4919C0 48.8727 1.11919 49.9915 2.49957 49.9915H35.8272C37.2076 49.9915 38.3268 48.8727 38.3268 47.4919V39.16C38.3268 38.6999 37.9537 38.3268 37.4936 38.3268Z" fill="#AF4425"/>
</svg>
